<svg xmlns="http://www.w3.org/2000/svg" viewBox="0 0 780 520">
<style>text{font-family:"WenQuanYi Zen Hei","DejaVu Sans",sans-serif}</style>
<defs><marker id="a" markerWidth="6" markerHeight="5" refX="6" refY="2.5" orient="auto"><polygon points="0 0,6 2.5,0 5" fill="#555"/></marker></defs>

<rect x="10" y="5" width="95" height="22" rx="3" fill="#e3f2fd" stroke="#1565c0"/><text x="57" y="20" text-anchor="middle" font-size="9" font-weight="bold" fill="#1565c0">Client</text><line x1="57" y1="27" x2="57" y2="500" stroke="#ccc" stroke-dasharray="3,3"/>
<rect x="140" y="5" width="95" height="22" rx="3" fill="#e3f2fd" stroke="#1565c0"/><text x="187" y="20" text-anchor="middle" font-size="9" font-weight="bold" fill="#1565c0">Acceptor</text><line x1="187" y1="27" x2="187" y2="500" stroke="#ccc" stroke-dasharray="3,3"/>
<rect x="270" y="5" width="95" height="22" rx="3" fill="#e8eaf6" stroke="#283593"/><text x="317" y="20" text-anchor="middle" font-size="9" font-weight="bold" fill="#283593">IO Thread</text><line x1="317" y1="27" x2="317" y2="500" stroke="#ccc" stroke-dasharray="3,3"/>
<rect x="400" y="5" width="95" height="22" rx="3" fill="#fff3e0" stroke="#e65100"/><text x="447" y="20" text-anchor="middle" font-size="9" font-weight="bold" fill="#e65100">DataFlow</text><line x1="447" y1="27" x2="447" y2="500" stroke="#ccc" stroke-dasharray="3,3"/>
<rect x="530" y="5" width="95" height="22" rx="3" fill="#e8f5e9" stroke="#2e7d32"/><text x="577" y="20" text-anchor="middle" font-size="9" font-weight="bold" fill="#2e7d32">Worker</text><line x1="577" y1="27" x2="577" y2="500" stroke="#ccc" stroke-dasharray="3,3"/>
<line x1="57" y1="45" x2="184" y2="45" stroke="#1565c0" stroke-width="1.2" marker-end="url(#a)"/><text x="120" y="40" font-size="8" fill="#1565c0">1.TCP connect+POST</text>
<line x1="187" y1="63" x2="314" y2="63" stroke="#1565c0" stroke-width="1.2" marker-end="url(#a)"/><text x="250" y="58" font-size="8" fill="#1565c0">2.accept+round-robin</text>
<rect x="260" y="72" width="65" height="14" rx="3" fill="#ffebee" stroke="#c62828" stroke-width="0.8"/><text x="292" y="82" text-anchor="middle" font-size="7" fill="#c62828">3.CanAccept?</text>
<line x1="187" y1="95" x2="314" y2="95" stroke="#1565c0" stroke-width="1.2" marker-end="url(#a)"/><text x="250" y="90" font-size="8" fill="#1565c0">4.AddAcceptedFd</text>
<text x="330" y="115" font-size="8" fill="#283593">5.epollâ†’IOFunc</text>
<text x="330" y="132" font-size="7" fill="#555">RecvRequest:HTTPè§£و‍گ</text>
<rect x="260" y="142" width="70" height="14" rx="3" fill="#ffebee" stroke="#c62828" stroke-width="0.8"/><text x="295" y="152" text-anchor="middle" font-size="7" fill="#c62828">6-7.QoSو£€وں¥</text>
<line x1="317" y1="168" x2="444" y2="168" stroke="#e65100" stroke-width="1.2" marker-end="url(#a)"/><text x="380" y="163" font-size="8" fill="#e65100">8.PushRequest</text>
<line x1="447" y1="186" x2="574" y2="186" stroke="#e65100" stroke-width="1.2" marker-end="url(#a)"/><text x="510" y="181" font-size="8" fill="#e65100">9.PluckRequest</text>
<text x="590" y="202" font-size="7" fill="#888">wait=now-enqueue</text>
<text x="590" y="220" font-size="8" font-weight="bold" fill="#2e7d32">10.dispatch_(req,resp)â†’ن¸ڑهٹ،ن»£ç پ!</text>
<text x="590" y="238" font-size="7" fill="#555">11.resp=reqâ†’GenResponse</text>
<line x1="577" y1="256" x2="450" y2="256" stroke="#e65100" stroke-width="1.2" marker-end="url(#a)"/><text x="515" y="251" font-size="8" fill="#e65100">12.PushResponse</text>
<line x1="447" y1="274" x2="320" y2="274" stroke="#283593" stroke-width="1.2" marker-end="url(#a)"/><text x="385" y="269" font-size="8" fill="#283593">PluckRespâ†’Resume</text>
<line x1="317" y1="296" x2="60" y2="296" stroke="#1565c0" stroke-width="1.2" marker-end="url(#a)"/><text x="185" y="291" font-size="8" fill="#1565c0">13.respâ†’Sendâ†’HTTP 200 OK</text>
<text x="70" y="315" font-size="7" fill="#555">â†گهڈچه؛ڈهˆ—هŒ–هˆ°resp</text>
<path d="M 317 332 Q 317 355 240 355 Q 160 355 160 332" fill="none" stroke="#888" stroke-width="0.8" stroke-dasharray="2,2"/><text x="240" y="350" text-anchor="middle" font-size="7" fill="#888">keep-alive?â†’loop</text>
<rect x="10" y="375" width="760" height="55" rx="5" fill="#f5f5f5" stroke="#ddd" stroke-width="0.5"/>
<text x="390" y="393" text-anchor="middle" font-size="9" font-weight="bold" fill="#333">ه…³é”®و´‍ه¯ں</text>
<text x="390" y="410" text-anchor="middle" font-size="8" fill="#555">Clientâ†’Acceptorâ†’IO(epoll+ucontext)â†’DataFlow(mutex+cv)â†’Worker(dispatch)â†’DataFlowâ†’IOâ†’Client</text>
<text x="390" y="424" text-anchor="middle" font-size="8" fill="#555">IOه’ŒWorkerهڈھé€ڑè؟‡DataFlowé€ڑن؟،,ن»ژن¸چç›´وژ¥è°ƒç”¨.éکںهˆ—و»،وˆ–QoSè§¦هڈ‘و—¶هœ¨ç؛¢è‰²ه¤„و‹’ç»‌.</text>

</svg>